<?xml version="1.0" standalone="no"?>
<!DOCTYPE svg PUBLIC "-//W3C//DTD SVG 20010904//EN"
 "http://www.w3.org/TR/2001/REC-SVG-20010904/DTD/svg10.dtd">
<svg version="1.0" xmlns="http://www.w3.org/2000/svg"
 width="1094.000000pt" height="1094.000000pt" viewBox="0 0 1094.000000 1094.000000"
 preserveAspectRatio="xMidYMid meet">
<metadata>
Created by potrace 1.11, written by Peter Selinger 2001-2013
</metadata>
<g transform="translate(0.000000,1094.000000) scale(0.100000,-0.100000)"
fill="#000000" stroke="none">
<path d="M6500 10913 c-260 -17 -484 -50 -700 -103 -877 -215 -1640 -725
-2175 -1453 -76 -104 -80 -108 -109 -103 -191 39 -477 57 -703 45 -403 -21
-765 -114 -1128 -288 -891 -428 -1506 -1260 -1656 -2241 -27 -174 -36 -527
-20 -707 100 -1070 766 -2004 1741 -2443 63 -28 116 -52 117 -54 2 -1 10 -56
18 -122 164 -1279 941 -2380 2088 -2955 1729 -869 3838 -312 4912 1296 336
503 535 1035 622 1665 22 164 25 701 4 897 -13 122 -13 134 2 151 10 10 17 29
17 43 0 15 22 49 56 89 31 36 103 127 160 204 807 1074 984 2508 463 3750
-486 1157 -1513 2002 -2740 2255 -317 65 -689 93 -969 74z"/>
</g>
</svg>
