<svg id="Warstwa_1" data-name="Warstwa 1" xmlns="http://www.w3.org/2000/svg" viewBox="0 0 341.95 111.8"><defs><style>.cls-1{fill:#d1d5d5;}.cls-2{fill:#ade3e6;}.cls-3{fill:#9ddfe0;}.cls-4{fill:#8acfd0;}.cls-5{fill:#79d4d6;}.cls-6{fill:#93cfd2;}.cls-7{fill:#70cdd0;}.cls-8{fill:#969d9d;}.cls-9{fill:#55cdce;}.cls-10{fill:none;stroke:#50cdcf;stroke-miterlimit:10;stroke-width:0.25px;}.cls-11{fill:#fff;}.cls-12{fill:#55cdcd;}</style></defs><title>logo</title><circle class="cls-1" cx="69.12" cy="39.27" r="39.27"/><circle class="cls-2" cx="58.76" cy="72.21" r="39.59"/><circle class="cls-3" cx="30.65" cy="47.32" r="30.65"/><path class="cls-4" d="M41.08,18.81a39.24,39.24,0,0,0,11.4,55,30.63,30.63,0,0,0-11.4-55Z" transform="translate(-4.54 -1.48)"/><path class="cls-5" d="M65.43,48.81a30.51,30.51,0,0,0-3.7-14.61,39.55,39.55,0,0,0-38,39.51c0,1.26.07,2.5.19,3.73A30.58,30.58,0,0,0,65.43,48.81Z" transform="translate(-4.54 -1.48)"/><path class="cls-6" d="M63.83,34.11A39.44,39.44,0,0,0,35.34,46.25a39.2,39.2,0,0,0,67.54,21.26A39.56,39.56,0,0,0,63.83,34.11Z" transform="translate(-4.54 -1.48)"/><path class="cls-7" d="M65.62,48.81a30.51,30.51,0,0,0-3.7-14.61A39.42,39.42,0,0,0,35,46.25,39.23,39.23,0,0,0,52.67,73.8,30.59,30.59,0,0,0,65.62,48.81Z" transform="translate(-4.54 -1.48)"/><path class="cls-8" d="M130.62,61.36a3.73,3.73,0,0,0-1.43-1.13,4.25,4.25,0,0,0-1.78-.39,4.78,4.78,0,0,0-2,.42,4.7,4.7,0,0,0-1.56,1.15,5.28,5.28,0,0,0-1,1.72,6.16,6.16,0,0,0-.36,2.11,5.83,5.83,0,0,0,.34,2,5,5,0,0,0,1,1.65A4.58,4.58,0,0,0,125.32,70a5,5,0,0,0,2.09.41,4.15,4.15,0,0,0,2-.47,4.32,4.32,0,0,0,1.47-1.32l1.52,1.15a6.11,6.11,0,0,1-.53.59,5.24,5.24,0,0,1-1,.77,7.06,7.06,0,0,1-1.49.68,6.38,6.38,0,0,1-2,.29,6.55,6.55,0,0,1-2.85-.6A6.85,6.85,0,0,1,121,67.74a6.93,6.93,0,0,1-.47-2.49A7.8,7.8,0,0,1,121,62.4a6.72,6.72,0,0,1,1.42-2.26,6.36,6.36,0,0,1,2.19-1.47,7.33,7.33,0,0,1,2.82-.53,6.9,6.9,0,0,1,2.58.51,4.82,4.82,0,0,1,2.08,1.56Z" transform="translate(-4.54 -1.48)"/><path class="cls-8" d="M136.22,58.48H138V64h6.9V58.48h1.8v13.3h-1.8V65.7H138v6.09h-1.8Z" transform="translate(-4.54 -1.48)"/><path class="cls-8" d="M151.65,58.48h2.69l4.23,10.07h.07l4.19-10.07h2.69v13.3h-1.81V60.85h0l-4.49,10.94H158l-4.49-10.94h0V71.79h-1.8Z" transform="translate(-4.54 -1.48)"/><path class="cls-8" d="M170.44,58.48h1.81v13.3h-1.81Z" transform="translate(-4.54 -1.48)"/><path class="cls-8" d="M177.3,58.48h8.59v1.69h-6.78v4h6.31v1.69h-6.31V70.1h7.12v1.69H177.3Z" transform="translate(-4.54 -1.48)"/><path class="cls-8" d="M190.42,58.48h1.81V70.1h6.11v1.69h-7.91Z" transform="translate(-4.54 -1.48)"/><path class="cls-9" d="M201.81,58.48h8.36v1.69h-6.56v4.17h6.11V66h-6.11v5.75h-1.81Z" transform="translate(-4.54 -1.48)"/><path class="cls-9" d="M214.23,58.48H216v13.3h-1.81Z" transform="translate(-4.54 -1.48)"/><path class="cls-9" d="M220,70.1l7.57-9.92H220.2V58.48h9.6v1.69l-7.54,9.92h7.65v1.69H220Z" transform="translate(-4.54 -1.48)"/><path class="cls-9" d="M238,58.48h1.8V68a4.65,4.65,0,0,1-.39,2.06,3.54,3.54,0,0,1-1,1.26,3.5,3.5,0,0,1-1.27.64,4.86,4.86,0,0,1-1.24.18,3.86,3.86,0,0,1-2.38-.72,3.34,3.34,0,0,1-1.23-2.19l1.77-.4a2.12,2.12,0,0,0,.62,1.18,1.73,1.73,0,0,0,1.22.43,2,2,0,0,0,1.08-.26,1.85,1.85,0,0,0,.63-.69,2.89,2.89,0,0,0,.3-1,8.17,8.17,0,0,0,.08-1.11Z" transform="translate(-4.54 -1.48)"/><path class="cls-9" d="M250.67,72.12a7.18,7.18,0,0,1-2.8-.54,6.52,6.52,0,0,1-2.19-1.48,6.81,6.81,0,0,1-1.43-2.22,7.63,7.63,0,0,1,0-5.53,6.82,6.82,0,0,1,1.43-2.22,6.51,6.51,0,0,1,2.19-1.47,7.58,7.58,0,0,1,5.6,0,6.52,6.52,0,0,1,2.19,1.47,6.83,6.83,0,0,1,1.43,2.22,7.66,7.66,0,0,1,0,5.53,6.81,6.81,0,0,1-1.43,2.22,6.54,6.54,0,0,1-2.19,1.48A7.19,7.19,0,0,1,250.67,72.12Zm0-1.69a4.84,4.84,0,0,0,3.65-1.56,5,5,0,0,0,1-1.68,6.1,6.1,0,0,0,0-4.12,5,5,0,0,0-1-1.68,5,5,0,0,0-7.29,0,5,5,0,0,0-1,1.68,6.1,6.1,0,0,0,0,4.12,5,5,0,0,0,1,1.68,4.84,4.84,0,0,0,3.65,1.56Z" transform="translate(-4.54 -1.48)"/><path class="cls-9" d="M264.61,60.17h-4.28V58.48H270.7v1.69h-4.28V71.79h-1.81Z" transform="translate(-4.54 -1.48)"/><path class="cls-9" d="M274.25,58.48h8.59v1.69h-6.78v4h6.31v1.69h-6.31V70.1h7.12v1.69h-8.93Z" transform="translate(-4.54 -1.48)"/><path class="cls-9" d="M287.37,58.48H292a5.46,5.46,0,0,1,2.1.35,3.58,3.58,0,0,1,1.31.88,3,3,0,0,1,.67,1.2,4.74,4.74,0,0,1,.19,1.29,3.46,3.46,0,0,1-.22,1.23,3.5,3.5,0,0,1-.65,1.07,3.7,3.7,0,0,1-1,.81,3.6,3.6,0,0,1-1.36.4l3.78,6.07h-2.25l-3.38-5.86h-2v5.86h-1.81Zm1.81,5.86h2.37a6.47,6.47,0,0,0,1-.08,2.82,2.82,0,0,0,.92-.31,1.69,1.69,0,0,0,.65-.65,2.59,2.59,0,0,0,0-2.2,1.69,1.69,0,0,0-.65-.65,2.8,2.8,0,0,0-.92-.31,6.47,6.47,0,0,0-1-.08h-2.37Z" transform="translate(-4.54 -1.48)"/><path class="cls-9" d="M304.66,58.48h1.64L312,71.79h-2.11l-1.33-3.29h-6.33l-1.32,3.29h-2.11Zm3.23,8.44-2.48-6.11h0l-2.52,6.11Z" transform="translate(-4.54 -1.48)"/><path class="cls-9" d="M315.35,58.48H320a5.46,5.46,0,0,1,2.1.35,3.58,3.58,0,0,1,1.31.88,3,3,0,0,1,.67,1.2,4.5,4.5,0,0,1,0,2.57,3,3,0,0,1-.67,1.2,3.59,3.59,0,0,1-1.31.88,5.46,5.46,0,0,1-2.1.35h-2.88v5.86h-1.81Zm1.81,5.86h2.37a6.47,6.47,0,0,0,1-.08,2.82,2.82,0,0,0,.92-.31,1.69,1.69,0,0,0,.65-.65,2.59,2.59,0,0,0,0-2.2,1.69,1.69,0,0,0-.65-.65,2.8,2.8,0,0,0-.92-.31,6.47,6.47,0,0,0-1-.08h-2.37Z" transform="translate(-4.54 -1.48)"/><path class="cls-9" d="M328.13,58.48h1.81v13.3h-1.81Z" transform="translate(-4.54 -1.48)"/><path class="cls-9" d="M339.16,58.48h1.64l5.69,13.3h-2.11L343,68.5h-6.33l-1.32,3.29h-2.11Zm3.23,8.44-2.48-6.11h0l-2.52,6.11Z" transform="translate(-4.54 -1.48)"/><path class="cls-10" d="M52.74,27.05" transform="translate(-4.54 -1.48)"/><path class="cls-10" d="M52.74,27.05" transform="translate(-4.54 -1.48)"/><path class="cls-11" d="M62.59,17.15l-.51,3.59a2.58,2.58,0,0,1-.87,1.59l-.87.75a1.25,1.25,0,0,1-.81.3h-.79a1,1,0,0,1-.65-.25l-1.32-1.19a2.1,2.1,0,0,1-.68-1.27l-.49-3.52s-.22-4,3.5-3.9S62.59,17.15,62.59,17.15Z" transform="translate(-4.54 -1.48)"/><path class="cls-11" d="M59,56.6s.72.09.74.22A47.56,47.56,0,0,0,61.39,65a1.37,1.37,0,0,1,.08.38,29.93,29.93,0,0,0,.64,5.23c.38.7-.43,8,0,9.7s1.63,7.37,1.41,8.18A39.36,39.36,0,0,0,63.2,93a.83.83,0,0,0,.15.51,5.48,5.48,0,0,0,2,1.82c1.08.43,4.06-.43,3.63-1.14s-3.09-2.76-3.25-4.28S66.87,81.59,66.77,79c-.1-2.25-.61-6.61-.73-7.6a.85.85,0,0,1,0-.37,60.34,60.34,0,0,0,1.07-6.69c0-.06,0-.11,0-.17.27-10.93-1.83-15.71-2.34-16.68a1.13,1.13,0,0,1-.12-.45q0-.14,0-.28L61.21,22.33l-4.73-.65.59,5.12L53.27,46.63l4.2,9.4L59,56.6H58.6a.4.4,0,0,0-.4.35,46.55,46.55,0,0,1-1.69,8.13,1,1,0,0,0-.06.29,30.53,30.53,0,0,1-.64,5.27c-.38.7.43,8,0,9.7s-1.63,7.37-1.41,8.18a37,37,0,0,1,.31,4.28,1.32,1.32,0,0,1-.26.83,5.16,5.16,0,0,1-1.84,1.67c-1.08.43-4.06-.43-3.63-1.14s3.09-2.76,3.25-4.28S51,81.59,51.15,79c.09-2.22.6-6.5.73-7.56a1.05,1.05,0,0,0,0-.45,62.43,62.43,0,0,1-1.06-6.68s0-.07,0-.11C50.5,53.63,52.47,48.81,53,47.63a2,2,0,0,0,.2-.69c0-.12,0-.23,0-.31" transform="translate(-4.54 -1.48)"/><path class="cls-11" d="M64.57,46.8a15.48,15.48,0,0,1,.49-5.1,1.68,1.68,0,0,1,.22-.47c1.19-1.71,2-7.93,2-7.93,2.15,1.91,6.46,2.78,7.62,3a1.3,1.3,0,0,1,.51.21,11.45,11.45,0,0,0,2,1c1.68.7,6.34.05,7,.05S87,39.1,87.61,39.2s6.45.33,6.56,0-3.46-1.59-4.08-1.81l-.19-.05L88.32,37s-6.19-1.73-7.91-3.14-4.92-1-4.5-1l-3.81-2.24a.6.6,0,0,1-.22-.24A6.32,6.32,0,0,0,65.51,27a.67.67,0,0,1-.44-.11l-3.72-2.46" transform="translate(-4.54 -1.48)"/><path class="cls-11" d="M56.77,24.46l-3.93,2.6a6.39,6.39,0,0,0-6.54,3.22,1,1,0,0,1-.37.39l-3.45,2a.88.88,0,0,1-.54.12c-.77-.08-2.94-.17-4.22,1.06C36.14,35.41,29.8,37,29.8,37l-1.68.33s-4.28,1.52-4.17,1.84,5.91.11,6.56,0,2.55-1.63,3.2-1.63,5.31.65,7-.05a10.46,10.46,0,0,0,2.12-1.11.57.57,0,0,1,.25-.11c.88-.15,5.52-1,7.77-3,0,0,.77,5.89,1.91,7.78a2.07,2.07,0,0,1,.27.84,34.69,34.69,0,0,1,.26,4.72Z" transform="translate(-4.54 -1.48)"/><circle class="cls-11" cx="43.94" cy="29.4" r="0.89"/><polyline class="cls-11" points="51.04 54.86 55.14 53.56 54.4 45.54 49.69 45.54"/><polygon class="cls-11" points="51.19 55.34 50.89 54.38 54.6 53.2 53.95 46.04 49.69 46.04 49.69 45.04 54.86 45.04 55.67 53.91 51.19 55.34"/><circle class="cls-12" cx="58.85" cy="34.65" r="1.55"/><circle class="cls-12" cx="58.85" cy="46.43" r="0.89"/><circle class="cls-12" cx="80.67" cy="35.17" r="1.02"/><polygon class="cls-11" points="53.3 23.95 52.2 55.83 46.51 56.73 53.3 23.95"/><polygon class="cls-11" points="57.22 19.27 54.12 22.19 56.6 22.29 57.22 19.27"/><polygon class="cls-11" points="52.34 23.46 49.29 26.51 49.29 41.71 54.29 32.3 52.34 23.46"/><circle class="cls-12" cx="57.31" cy="26.31" r="3.01"/><path class="cls-9" d="M59.41,23.41h-.79a1,1,0,0,1-.69-.26L56.62,22a2.15,2.15,0,0,1-.69-1.3l-.49-3.52a4.54,4.54,0,0,1,1-3,3.25,3.25,0,0,1,2.45-.93H59a3.41,3.41,0,0,1,2.55,1,4.46,4.46,0,0,1,1,2.95h0L62,20.73a2.63,2.63,0,0,1-.89,1.62l-.87.75A1.3,1.3,0,0,1,59.41,23.41Zm-.51-10.14a3.16,3.16,0,0,0-2.38.9,4.43,4.43,0,0,0-1,3L56,20.65a2.06,2.06,0,0,0,.66,1.24L58,23.08a.93.93,0,0,0,.62.24h.79A1.2,1.2,0,0,0,60.2,23l.87-.75a2.53,2.53,0,0,0,.85-1.56l.51-3.59a4.34,4.34,0,0,0-1-2.87,3.31,3.31,0,0,0-2.48-1Z" transform="translate(-4.54 -1.48)"/><polygon class="cls-9" points="52.36 25.3 51.77 20.19 51.87 20.17 52.46 25.29 52.36 25.3"/><rect class="cls-9" x="58.66" y="24.19" width="5.16" height="0.1" transform="matrix(0.17, -0.99, 0.99, 0.17, 22.64, 79.13)"/><path class="cls-9" d="M64.51,46.8A15.62,15.62,0,0,1,65,41.68a1.71,1.71,0,0,1,.23-.49c1.17-1.68,2-7.85,2-7.91v-.09l.07.06c2.12,1.89,6.35,2.76,7.6,3a1.34,1.34,0,0,1,.53.22,11.49,11.49,0,0,0,2,1c1.32.55,4.55.26,6.11.12.42,0,.73-.07.87-.07a5.3,5.3,0,0,1,1.78.87,6.14,6.14,0,0,0,1.43.75c.76.13,6.3.3,6.51,0a17.57,17.57,0,0,0-4.06-1.74l-.18,0-1.59-.31c-.07,0-6.23-1.75-7.94-3.16-1.39-1.14-3.77-1.07-4.47-1,0,0-.08,0-.09,0h0l-3.75-2.21a.64.64,0,0,1-.24-.26,6.25,6.25,0,0,0-6.31-3.32A.71.71,0,0,1,65,27l-3.73-2.46.05-.08,3.73,2.46a.61.61,0,0,0,.4.1,6.35,6.35,0,0,1,6.41,3.37.54.54,0,0,0,.2.22l3.8,2.24c.74,0,3.12-.11,4.52,1,1.7,1.4,7.84,3.12,7.9,3.13l1.58.31.19.05c1.93.69,4.21,1.58,4.12,1.87s-6.24.1-6.62,0a6,6,0,0,1-1.47-.77,5.35,5.35,0,0,0-1.72-.86c-.13,0-.44,0-.86.07-1.56.14-4.81.44-6.15-.12a11.59,11.59,0,0,1-2-1,1.23,1.23,0,0,0-.49-.2c-1.24-.22-5.42-1.07-7.58-2.94-.11.81-.88,6.26-2,7.86a1.62,1.62,0,0,0-.22.46,15.52,15.52,0,0,0-.49,5.08Z" transform="translate(-4.54 -1.48)"/><path class="cls-9" d="M65.95,95.48a2.16,2.16,0,0,1-.78-.12,5.58,5.58,0,0,1-2-1.84A.88.88,0,0,1,63,93a39.6,39.6,0,0,1,.32-4.45c.21-.79-1-6.46-1.41-8.16a29.9,29.9,0,0,1,0-5.58,19.61,19.61,0,0,0,0-4.11,29.19,29.19,0,0,1-.65-5.25,1.32,1.32,0,0,0-.08-.36,48.09,48.09,0,0,1-1.7-8.22.21.21,0,0,0-.21-.18h-.48v-.1h.48a.31.31,0,0,1,.31.27A48,48,0,0,0,61.32,65a1.4,1.4,0,0,1,.08.39A26.51,26.51,0,0,0,62,70.62a18.43,18.43,0,0,1,0,4.16,30,30,0,0,0,0,5.55c.46,1.76,1.63,7.39,1.41,8.21A39.78,39.78,0,0,0,63.14,93a.78.78,0,0,0,.14.48,5.47,5.47,0,0,0,1.93,1.81,4.53,4.53,0,0,0,3.52-.75.26.26,0,0,0,.05-.32,7.81,7.81,0,0,0-.89-1c-1-1-2.25-2.26-2.37-3.33A31.27,31.27,0,0,1,66,85.2a45.37,45.37,0,0,0,.61-6.15c-.1-2.27-.63-6.73-.73-7.6a.9.9,0,0,1,0-.39A60.86,60.86,0,0,0,67,64.38c0-.06,0-.11,0-.17a53.91,53.91,0,0,0-.88-12.07,18.6,18.6,0,0,0-1.45-4.6,1.19,1.19,0,0,1-.13-.47V46.8h.1v.28a1.09,1.09,0,0,0,.12.43,18.68,18.68,0,0,1,1.46,4.62,54,54,0,0,1,.88,12.09c0,.06,0,.12,0,.17A60.74,60.74,0,0,1,66,71.09a.8.8,0,0,0,0,.35c.11.87.64,5.33.73,7.61a45.29,45.29,0,0,1-.61,6.17,31.34,31.34,0,0,0-.47,4.67c.11,1,1.4,2.33,2.34,3.27a7.63,7.63,0,0,1,.91,1,.35.35,0,0,1-.06.44A4.75,4.75,0,0,1,65.95,95.48Z" transform="translate(-4.54 -1.48)"/><path class="cls-9" d="M51.73,95.48a4.75,4.75,0,0,1-2.85-.89.35.35,0,0,1-.06-.44,7.66,7.66,0,0,1,.91-1c.94-.94,2.23-2.24,2.34-3.27a31.39,31.39,0,0,0-.47-4.67A45.32,45.32,0,0,1,51,79c.09-2.2.58-6.35.73-7.57a1,1,0,0,0,0-.42,63.18,63.18,0,0,1-1.06-6.69s0-.07,0-.11c-.27-10.58,1.68-15.42,2.29-16.65a2,2,0,0,0,.19-.67c0-.11,0-.23,0-.31h.1c0,.08,0,.2,0,.31a2.07,2.07,0,0,1-.2.7c-.6,1.22-2.55,6-2.28,16.6,0,0,0,.07,0,.1A63.11,63.11,0,0,0,51.76,71a1.1,1.1,0,0,1,0,.47c-.15,1.22-.64,5.37-.73,7.56a45.4,45.4,0,0,0,.61,6.15,31.24,31.24,0,0,1,.47,4.7C52,91,50.74,92.28,49.79,93.23a7.81,7.81,0,0,0-.89,1,.26.26,0,0,0,.06.32,4.53,4.53,0,0,0,3.52.75,5.15,5.15,0,0,0,1.82-1.65,1.26,1.26,0,0,0,.25-.8,37,37,0,0,0-.31-4.27c-.22-.82,1-6.45,1.41-8.21a30,30,0,0,0,0-5.55,18.41,18.41,0,0,1,0-4.17,30.82,30.82,0,0,0,.64-5.25,1.06,1.06,0,0,1,.06-.3A46.48,46.48,0,0,0,58,56.94a.45.45,0,0,1,.45-.39h.36v.1h-.36a.35.35,0,0,0-.35.3,46.66,46.66,0,0,1-1.7,8.15,1,1,0,0,0-.06.27c0,.77-.3,4.66-.65,5.3a19.62,19.62,0,0,0,0,4.11,29.93,29.93,0,0,1,0,5.58c-.44,1.7-1.62,7.37-1.41,8.16a36.88,36.88,0,0,1,.31,4.29,1.36,1.36,0,0,1-.27.86,5.23,5.23,0,0,1-1.86,1.68A2.16,2.16,0,0,1,51.73,95.48Z" transform="translate(-4.54 -1.48)"/><path class="cls-9" d="M53.2,46.63h-.1a35,35,0,0,0-.26-4.71,2,2,0,0,0-.26-.82c-1-1.75-1.8-7-1.9-7.71-2.28,2-6.83,2.81-7.73,3a.52.52,0,0,0-.23.1,10.54,10.54,0,0,1-2.13,1.12c-1.34.56-4.59.27-6.15.12-.42,0-.73-.07-.86-.07a5.35,5.35,0,0,0-1.72.86,6,6,0,0,1-1.47.77c-.38.06-6.48.37-6.62,0s2.9-1.45,4.21-1.91L29.67,37c.06,0,6.35-1.64,7.89-3.13,1.28-1.23,3.41-1.16,4.26-1.08a.84.84,0,0,0,.51-.11l3.45-2a1,1,0,0,0,.35-.37A6.47,6.47,0,0,1,52.71,27l3.92-2.59.06.08-4,2.61h0a6.39,6.39,0,0,0-6.49,3.19,1.06,1.06,0,0,1-.39.41l-3.45,2a.94.94,0,0,1-.57.13c-.84-.08-2.94-.15-4.19,1.05-1.56,1.51-7.68,3.09-7.94,3.16L28,37.4a18.79,18.79,0,0,0-4.14,1.78c.21.26,5.74.09,6.5,0a6.14,6.14,0,0,0,1.43-.75,5.3,5.3,0,0,1,1.78-.87c.14,0,.44,0,.87.07,1.55.14,4.79.44,6.11-.12a10.47,10.47,0,0,0,2.11-1.1.63.63,0,0,1,.27-.12c.9-.15,5.51-1,7.75-3l.07-.06v.09c0,.06.78,5.9,1.9,7.76a2.11,2.11,0,0,1,.28.86A35.16,35.16,0,0,1,53.2,46.63Z" transform="translate(-4.54 -1.48)"/><circle class="cls-1" cx="45.58" cy="29.4" r="2.13"/><circle class="cls-1" cx="49.29" cy="69.2" r="2.13"/><rect class="cls-11" x="52.12" y="52.86" width="4.16" height="2.14"/><circle class="cls-1" cx="59.85" cy="88.66" r="1"/></svg>