<svg id="Warstwa_1" data-name="Warstwa 1" xmlns="http://www.w3.org/2000/svg" viewBox="0 0 394.93 461.02"><defs><style>.cls-1{fill:none;stroke:#50cdcf;stroke-miterlimit:10;stroke-width:0.25px;}.cls-2{fill:#fff;}.cls-3{fill:#50cdcf;}.cls-4{fill:#d0d4d5;}</style></defs><title>graphic</title><path class="cls-1" d="M165.19,81.39" transform="translate(-2.7 -3.18)"/><path class="cls-1" d="M165.19,81.39" transform="translate(-2.7 -3.18)"/><path class="cls-2" d="M220.23,26.07l-2.87,20.06A14.42,14.42,0,0,1,212.5,55l-4.84,4.17a7,7,0,0,1-4.54,1.69h-4.4a5.46,5.46,0,0,1-3.65-1.4l-7.36-6.63a11.74,11.74,0,0,1-3.78-7.11l-2.74-19.66S180,4,200.71,4.28,220.23,26.07,220.23,26.07Z" transform="translate(-2.7 -3.18)"/><path class="cls-2" d="M199.92,246.38s4,.53,4.12,1.25c.73,5.84,4.08,30.78,9.46,45.84a7.63,7.63,0,0,1,.44,2.11c.31,5,1.71,25.72,3.57,29.17,2.12,3.93-2.42,44.79,0,54.17s9.08,41.16,7.87,45.7c-1,3.81-1.61,19.77-1.77,24.8a4.64,4.64,0,0,0,.85,2.85c1.85,2.61,6.29,8.33,10.9,10.18,6.05,2.42,22.7-2.42,20.28-6.36s-17.25-15.43-18.16-23.91,6.66-46.3,6.05-60.52c-.53-12.56-3.43-36.91-4.1-42.44a4.74,4.74,0,0,1,.19-2.05c2.48-7.65,5.53-33.57,6-37.36,0-.32.06-.63.07-.94,1.53-61.05-10.24-87.71-13-93.16a6.3,6.3,0,0,1-.68-2.51q0-.8-.08-1.57L212.5,55l-26.42-3.64,3.29,28.56L168.18,190.72l23.48,52.49,8.27,3.17h-2a2.21,2.21,0,0,0-2.21,1.93c-.89,6.93-4.22,30.9-9.46,45.41a5.64,5.64,0,0,0-.34,1.59c-.28,4.47-1.69,25.92-3.58,29.45-2.12,3.93,2.42,44.79,0,54.17s-9.08,41.16-7.87,45.7c1,3.6,1.54,18.06,1.74,23.88a7.36,7.36,0,0,1-1.45,4.64c-2.11,2.85-6.12,7.64-10.27,9.3-6.05,2.42-22.7-2.42-20.28-6.36s17.25-15.43,18.16-23.91-6.66-46.3-6.05-60.52c.53-12.4,3.35-36.29,4.07-42.22a5.88,5.88,0,0,0-.23-2.49c-2.51-8-5.57-34.21-5.92-37.31,0-.2,0-.4,0-.6-1.51-59.29,9.51-86.2,12.75-92.77a11.29,11.29,0,0,0,1.09-3.83c.07-.65.13-1.29.15-1.73" transform="translate(-2.7 -3.18)"/><path class="cls-2" d="M231.27,191.63c-.69-15,1.6-24.66,2.75-28.45a9.36,9.36,0,0,1,1.24-2.64c6.63-9.54,11.18-44.28,11.18-44.28,12,10.68,36.08,15.53,42.55,16.67a7.24,7.24,0,0,1,2.84,1.17,63.91,63.91,0,0,0,11.2,5.76c9.38,3.93,35.41.3,39,.3s14.22,8.47,17.85,9.08,36,1.82,36.62,0c.55-1.66-19.34-8.87-22.79-10.11a7,7,0,0,0-1-.28l-8.85-1.71s-34.56-9.63-44.18-17.55-27.49-5.42-25.12-5.75L273.28,101.3A3.33,3.33,0,0,1,272,100c-10.36-19.84-30.31-19.21-35.52-18.68a3.72,3.72,0,0,1-2.44-.61L213.28,66.93" transform="translate(-2.7 -3.18)"/><path class="cls-2" d="M187.72,66.93l-22,14.53s-24.41-4.36-36.5,18a5.66,5.66,0,0,1-2.08,2.2L107.9,113a4.92,4.92,0,0,1-3,.67c-4.27-.43-16.43-1-23.58,5.94-8.78,8.47-44.18,17.55-44.18,17.55L27.76,139s-23.91,8.47-23.3,10.29,33,.61,36.62,0,14.22-9.08,17.85-9.08,29.66,3.63,39-.3c7.1-3,10.56-5.26,11.82-6.2a3.2,3.2,0,0,1,1.4-.59c4.92-.83,30.8-5.61,43.37-16.82,0,0,4.31,32.86,10.64,43.44a11.54,11.54,0,0,1,1.51,4.69c.65,5.91,1.94,19,1.46,26.34Z" transform="translate(-2.7 -3.18)"/><circle class="cls-2" cx="138.71" cy="99.62" r="4.98"/><polyline class="cls-2" points="178.37 241.76 201.25 234.5 197.13 189.71 170.8 189.71"/><polygon class="cls-2" points="178.52 242.23 178.22 241.28 200.71 234.14 196.67 190.21 170.8 190.21 170.8 189.21 197.58 189.21 201.78 234.85 178.52 242.23"/><circle class="cls-3" cx="221.98" cy="128.91" r="8.63"/><circle class="cls-3" cx="221.98" cy="194.69" r="4.98"/><circle class="cls-3" cx="340.67" cy="129.72" r="6.15"/><polygon class="cls-2" points="191 69.16 184.81 247.17 153.07 252.19 191 69.16"/><polygon class="cls-2" points="212.85 43.01 195.58 59.35 209.41 59.92 212.85 43.01"/><polygon class="cls-2" points="185.63 66.46 168.6 83.47 168.6 168.35 196.49 115.76 185.63 66.46"/><path class="cls-2" d="M170.79,173.54V86.44l17.82-17.81L199.72,119l-.09.16Zm1-86.68v82.66l26.87-50.65L188,70.64Z" transform="translate(-2.7 -3.18)"/><circle class="cls-3" cx="213.36" cy="82.33" r="16.82"/><path class="cls-3" d="M202.48,61.8h-4.4a6.45,6.45,0,0,1-4.32-1.66l-7.37-6.63a12.77,12.77,0,0,1-4.1-7.72l-2.74-19.67c0-.52-.52-10.84,5.9-17.52,3.54-3.68,8.46-5.49,14.64-5.41S211.32,5.25,214.87,9c6.24,6.69,5.76,16.57,5.73,17v.09l-2.87,20.07a15.43,15.43,0,0,1-5.2,9.51l-4.84,4.17A8,8,0,0,1,202.48,61.8ZM199.65,5.18c-5.4,0-9.69,1.61-12.75,4.79-5.82,6-5.37,15.86-5.36,16l2.73,19.59A10.77,10.77,0,0,0,187.73,52l7.37,6.63a4.45,4.45,0,0,0,3,1.15h4.4a6,6,0,0,0,3.89-1.44l4.84-4.17a13.43,13.43,0,0,0,4.53-8.28l2.86-20c0-.66.26-9.62-5.21-15.49-3.15-3.38-7.64-5.14-13.34-5.22Z" transform="translate(-2.7 -3.18)"/><path class="cls-3" d="M188.72,80.87a1,1,0,0,1-1-.89l-3.29-28.57a1,1,0,0,1,2-.23l3.29,28.57a1,1,0,0,1-.88,1.11Z" transform="translate(-2.7 -3.18)"/><path class="cls-3" d="M210.31,80.9h-.17a1,1,0,0,1-.82-1.15l4.77-28.41a1,1,0,1,1,2,.33L211.3,80.07A1,1,0,0,1,210.31,80.9Z" transform="translate(-2.7 -3.18)"/><path class="cls-3" d="M231.23,192.61a1,1,0,0,1-1-1c-.7-15.36,1.72-25.26,2.79-28.8a10.27,10.27,0,0,1,1.38-2.93c6.42-9.24,11-43.51,11-43.86a1,1,0,0,1,1.66-.62c11.7,10.43,35.17,15.22,42.08,16.44a8.22,8.22,0,0,1,3.23,1.33,63.13,63.13,0,0,0,11,5.66c7.2,3,25.13,1.39,33.75.6,2.39-.22,4.12-.38,4.92-.38,2.24,0,6.15,2.42,10.29,5,3.08,1.9,6.25,3.87,7.73,4.12,3.49.58,28.72,1.44,34.68.58-2.73-1.63-11.06-5.07-21.35-8.76a5.94,5.94,0,0,0-.89-.24l-8.85-1.71c-1.5-.41-35-9.8-44.65-17.77-7.53-6.19-20.61-5.78-24.44-5.51a1.07,1.07,0,0,1-1.15-.5l-20.7-12.19a4.31,4.31,0,0,1-1.63-1.73c-10-19.1-29-18.73-34.55-18.15a4.74,4.74,0,0,1-3.1-.77l-20.8-13.76a1,1,0,0,1,1.1-1.67l20.8,13.76a2.72,2.72,0,0,0,1.79.45c5.9-.61,26-1,36.52,19.22a2.32,2.32,0,0,0,.87.93l21.05,12.4c4.42-.28,17.62-.5,25.49,6,9.36,7.7,43.49,17.27,43.84,17.37l8.77,1.69a8,8,0,0,1,1.19.32c24.3,8.71,23.79,10.25,23.42,11.37-.3.89-.63,1.9-18.15,1.59-8.23-.14-17.57-.58-19.6-.92-1.87-.31-4.92-2.2-8.46-4.39-3.37-2.09-7.57-4.68-9.24-4.68-.71,0-2.49.16-4.74.37-9.45.86-27,2.46-34.7-.75a64.81,64.81,0,0,1-11.39-5.86,6.23,6.23,0,0,0-2.45-1c-6.78-1.2-29.2-5.78-41.65-15.73-1,7.35-5.22,34.46-11.11,42.94a8.31,8.31,0,0,0-1.11,2.37c-1,3.44-3.4,13.07-2.71,28.13a1,1,0,0,1-1,1Z" transform="translate(-2.7 -3.18)"/><path class="cls-3" d="M239,464.2a12.85,12.85,0,0,1-4.64-.71c-4.73-1.89-9.14-7.41-11.35-10.53a5.63,5.63,0,0,1-1-3.46c.2-6.26.79-21.22,1.8-25,1.07-4-5.11-34.5-7.87-45.21-1.31-5.1-.67-18.46-.05-31.38.47-9.83,1-21,.14-22.59-1.88-3.48-3.2-21.86-3.68-29.6a6.63,6.63,0,0,0-.38-1.84c-5.33-14.92-8.63-39-9.51-46.07a.43.43,0,0,0-.44-.38h-2.69a1,1,0,0,1,0-2H202a2.44,2.44,0,0,1,2.42,2.13c.63,5,4,30.54,9.41,45.65a8.59,8.59,0,0,1,.5,2.39c.73,11.67,2.07,26.21,3.45,28.77,1.08,2,.74,10.29.1,23.63-.59,12.18-1.25,26,0,30.78,1.9,7.35,9.25,41.07,7.87,46.22-1,3.71-1.58,19.76-1.74,24.59a3.64,3.64,0,0,0,.67,2.24c1.68,2.37,6.05,8.06,10.46,9.83,4.66,1.86,16.33-1,18.82-4,.48-.57.33-.82.24-.95a43.73,43.73,0,0,0-4.87-5.31c-5.39-5.41-12.77-12.81-13.44-19-.44-4.13,1-14.45,2.65-26.4,1.74-12.57,3.72-26.81,3.4-34.21-.54-12.61-3.5-37.52-4.09-42.38a5.75,5.75,0,0,1,.23-2.48c2.47-7.62,5.58-34.18,5.93-37.18,0-.29.05-.57.06-.85,1.53-61.33-10.51-88-12.93-92.72a7.35,7.35,0,0,1-.79-2.91q0-.8-.08-1.59a1,1,0,1,1,2-.09q0,.77.08,1.56a5.32,5.32,0,0,0,.57,2.11c2.47,4.8,14.7,31.87,13.16,93.68,0,.35,0,.69-.07,1-.57,4.93-3.54,29.92-6,37.57a3.76,3.76,0,0,0-.15,1.63c.59,4.88,3.57,29.86,4.11,42.54.32,7.58-1.67,21.92-3.42,34.57-1.57,11.33-3.06,22-2.64,25.92.59,5.51,7.69,12.63,12.87,17.83a42.61,42.61,0,0,1,5.16,5.67,2.64,2.64,0,0,1-.42,3.29C253.17,461.67,245.08,464.2,239,464.2Z" transform="translate(-2.7 -3.18)"/><path class="cls-3" d="M159.57,464.2c-6.08,0-14.17-2.53-16.46-5.24a2.64,2.64,0,0,1-.42-3.29,42.7,42.7,0,0,1,5.16-5.67c5.18-5.2,12.28-12.31,12.87-17.83.42-3.89-1.07-14.59-2.64-25.92-1.75-12.65-3.74-27-3.42-34.57.52-12.29,3.25-35.5,4.08-42.32a4.85,4.85,0,0,0-.19-2.07c-2.54-8.13-5.62-34.52-6-37.51,0-.23,0-.46,0-.69-1.51-59.27,9.46-86.38,12.86-93.28a10.29,10.29,0,0,0,1-3.49c.07-.63.13-1.24.15-1.67a1,1,0,0,1,1-1,1,1,0,0,1,1,1c0,.46-.08,1.11-.15,1.79a12.28,12.28,0,0,1-1.19,4.17c-3.35,6.8-14.15,33.54-12.65,92.35,0,.17,0,.34,0,.51.34,3,3.4,29.19,5.89,37.14a6.9,6.9,0,0,1,.27,2.9c-.82,6.8-3.55,29.94-4.07,42.16-.31,7.4,1.66,21.64,3.4,34.21,1.66,12,3.09,22.27,2.65,26.4-.67,6.21-8,13.62-13.44,19a43.77,43.77,0,0,0-4.87,5.31c-.08.13-.23.38.24.95,2.49,3,14.16,5.82,18.82,4,4-1.58,7.86-6.3,9.84-9a6.32,6.32,0,0,0,1.26-4c-.16-4.65-.75-20.08-1.71-23.67-1.37-5.16,6-38.87,7.87-46.22,1.24-4.8.58-18.6,0-30.78-.64-13.35-1-21.63.1-23.63,1.4-2.59,2.74-17.27,3.47-29a6.64,6.64,0,0,1,.39-1.87c5.2-14.4,8.52-38.25,9.41-45.22a3.23,3.23,0,0,1,3.2-2.8h2a1,1,0,0,1,0,2h-2a1.21,1.21,0,0,0-1.22,1.06c-.9,7-4.25,31.05-9.52,45.64a4.62,4.62,0,0,0-.28,1.32c-.38,6.09-1.75,26.25-3.7,29.87-.87,1.62-.33,12.76.14,22.59.62,12.92,1.26,26.28-.05,31.38-2.76,10.71-8.95,41.19-7.87,45.21,1,3.69,1.57,18.09,1.77,24.12a8.31,8.31,0,0,1-1.65,5.27c-2.11,2.84-6.3,7.88-10.71,9.64A12.84,12.84,0,0,1,159.57,464.2Z" transform="translate(-2.7 -3.18)"/><path class="cls-3" d="M167.53,191.7h-.06a1,1,0,0,1-.93-1.06c.47-7.35-.87-20.76-1.46-26.18a10.51,10.51,0,0,0-1.37-4.28c-5.58-9.32-9.52-34.94-10.53-42C140,128.66,115.59,133.19,110.68,134a2.21,2.21,0,0,0-1,.41c-1.48,1.09-5,3.37-12,6.32C90,144,72.42,142.35,63,141.49c-2.25-.21-4-.37-4.74-.37-1.67,0-5.87,2.6-9.24,4.68-3.54,2.19-6.59,4.08-8.46,4.39-2,.34-11.37.78-19.6.92-17.51.3-17.85-.7-18.15-1.59S1.87,146.77,26.71,138l.14,0,9.39-1.82c.29-.08,35.21-9.1,43.7-17.3,7.35-7.1,19.5-6.71,24.38-6.22a3.88,3.88,0,0,0,2.39-.53L126,100.7a4.66,4.66,0,0,0,1.71-1.82c11.43-21.1,33.85-19,37.16-18.54L186.52,66a1,1,0,1,1,1.1,1.67l-22,14.53a1,1,0,0,1-.73.15c-1-.17-23.86-4-35.46,17.46a6.66,6.66,0,0,1-2.45,2.59l-19.29,11.36a5.91,5.91,0,0,1-3.61.8c-3.59-.36-15.85-1-22.79,5.67-8.87,8.56-43.19,17.44-44.65,17.81l-9.37,1.82c-9,3.21-18.78,7.1-21.79,8.91,5.95.86,31.2,0,34.69-.57,1.48-.25,4.66-2.21,7.73-4.12,4.14-2.56,8-5,10.29-5,.8,0,2.53.16,4.92.38,8.62.79,26.55,2.42,33.75-.6s10.49-5.24,11.62-6.08a4.23,4.23,0,0,1,1.83-.78c5-.84,30.54-5.58,42.89-16.58a1,1,0,0,1,1.66.62c0,.33,4.36,32.79,10.51,43.08a12.48,12.48,0,0,1,1.65,5.09c.6,5.47,2,19,1.47,26.53A1,1,0,0,1,167.53,191.7Z" transform="translate(-2.7 -3.18)"/><circle class="cls-4" cx="147.86" cy="99.62" r="11.89"/><circle class="cls-4" cx="168.6" cy="321.84" r="11.89"/><rect class="cls-2" x="184.38" y="230.6" width="23.24" height="11.96"/><circle class="cls-4" cx="229.68" cy="430.43" r="5.95"/></svg>